# xmcd
#
# Track frame offsets: 
#        150
#        18338
#        37141
#        55442
#        70638
#        83325
#        99612
#        115455
#        131984
#        146982
#        161855
#        179870
#        200248
#        219188
#        234534
#        255569
#        271759
#        288765
#
# Disc length: 4041 seconds
#
# Revision: 0
# Processed by: cddbd v1.5.2PL0 Copyright (c) Steve Scherf et al.
# Submitted via: ExactAudioCopy v1.0b2
#
DISCID=170fc712
DTITLE=Various Artist - TexMix Summer 2011
DYEAR=2011
DGENRE=Texas Country
TTITLE0=More Like the River - Tina Mitchell Wilkins
TTITLE1=Good to Hear Your Voice - Homespun Remedies
TTITLE2=It Is What It Is - Sam Sliva and the Good
TTITLE3=Goodbye\\The Ride - The Von Ehrics
TTITLE4=Everything's Bigger - Zack King
TTITLE5=Gambling Preacher and His Daughter - Whiskey Folk Ramblers
TTITLE6=Pillow - TJ Broscoff
TTITLE7=I Love Being Me - Clint Martin Band
TTITLE8=Go Crazy with My Heart - Ridin' High Band
TTITLE9=Lights of the Ryman - Rick Cavender
TTITLE10=You Can Have Me - Phil Hamilton
TTITLE11=Positive Thinking - Bill McNeal
TTITLE12=Everybody's Somebody in a Honky Tonk - Carolann Ames
TTITLE13=Tonight - Zack Walther Band
TTITLE14=Fireworks - Hudson Moore
TTITLE15=All My Best Friends (Are Behind Bars) - Justin Haigh
TTITLE16=Hard Cold Steel - Smokey Wilson
TTITLE17=Lay Me Down - Ross Vick and TrueHeart
EXTD=
EXTT0=
EXTT1=
EXTT2=
EXTT3=
EXTT4=
EXTT5=
EXTT6=
EXTT7=
EXTT8=
EXTT9=
EXTT10=
EXTT11=
EXTT12=
EXTT13=
EXTT14=
EXTT15=
EXTT16=
EXTT17=
PLAYORDER=
